<svg width="50" height="50" viewBox="0 0 50 50" fill="none" xmlns="http://www.w3.org/2000/svg">
<g clip-path="url(#clip0_52_7)">
<path d="M49.7979 25.7688C44.1771 35.723 34.9063 41.6667 25 41.6667C15.0937 41.6667 5.82291 35.723 0.202081 25.7688C-0.0666687 25.2918 -0.0666687 24.7105 0.202081 24.2334C5.82291 14.2772 15.0937 8.33342 25 8.33342C34.9063 8.33342 44.1771 14.2772 49.7979 24.2313C50.0667 24.7084 50.0667 25.2918 49.7979 25.7688ZM25 16.6668C20.4042 16.6668 16.6667 20.4043 16.6667 25.0001C16.6667 29.5959 20.4042 33.3334 25 33.3334C29.5958 33.3334 33.3333 29.5959 33.3333 25.0001C33.3333 20.4043 29.5958 16.6668 25 16.6668Z" fill="white"/>
<path d="M47.9167 33.3333C46.7667 33.3333 45.8333 34.2667 45.8333 35.4167V43.75C45.8333 44.8979 44.8979 45.8333 43.75 45.8333H35.4167C34.2667 45.8333 33.3333 46.7667 33.3333 47.9167C33.3333 49.0667 34.2667 50 35.4167 50H43.75C47.1958 50 50 47.1958 50 43.75V35.4167C50 34.2667 49.0667 33.3333 47.9167 33.3333Z" fill="white"/>
<path d="M2.08333 33.3333C0.933333 33.3333 0 34.2667 0 35.4167V43.75C0 47.1958 2.80417 50 6.25 50H14.5833C15.7333 50 16.6667 49.0667 16.6667 47.9167C16.6667 46.7667 15.7333 45.8333 14.5833 45.8333H6.25C5.10208 45.8333 4.16667 44.8979 4.16667 43.75V35.4167C4.16667 34.2667 3.23333 33.3333 2.08333 33.3333Z" fill="white"/>
<path d="M43.75 7.62939e-05H35.4167C34.2667 7.62939e-05 33.3333 0.93341 33.3333 2.08341C33.3333 3.23341 34.2667 4.16674 35.4167 4.16674H43.75C44.8979 4.16674 45.8333 5.10216 45.8333 6.25008V14.5834C45.8333 15.7334 46.7667 16.6667 47.9167 16.6667C49.0667 16.6667 50 15.7334 50 14.5834V6.25008C50 2.80424 47.1958 7.62939e-05 43.75 7.62939e-05Z" fill="white"/>
<path d="M14.5833 7.62939e-05H6.25C2.80417 7.62939e-05 0 2.80424 0 6.25008V14.5834C0 15.7334 0.933333 16.6667 2.08333 16.6667C3.23333 16.6667 4.16667 15.7334 4.16667 14.5834V6.25008C4.16667 5.10216 5.10208 4.16674 6.25 4.16674H14.5833C15.7333 4.16674 16.6667 3.23341 16.6667 2.08341C16.6667 0.93341 15.7333 7.62939e-05 14.5833 7.62939e-05Z" fill="white"/>
</g>
<defs>
<clipPath id="clip0_52_7">
<rect width="50" height="50" fill="white" transform="matrix(1 0 0 -1 0 50)"/>
</clipPath>
</defs>
</svg>
